<svg xmlns="http://www.w3.org/2000/svg" width="500" height="489" viewBox="0 0 500 489" version="1.1"><path d="M 324.500 76.952 C 316.800 79.077, 306.225 81.715, 301 82.813 C 283.041 86.587, 270.491 89.108, 265.500 89.944 C 234.617 95.116, 190.254 114.546, 192.448 121.939 C 192.703 122.797, 193.595 128.498, 194.431 134.607 C 196.337 148.542, 199.007 165.198, 199.453 165.938 C 199.869 166.630, 203.214 189.177, 205.989 210 C 207.125 218.525, 208.717 229.795, 209.527 235.044 C 210.337 240.293, 211 250.513, 211 257.755 C 211 270.923, 211 270.923, 215.250 271.996 C 217.588 272.586, 222.875 274.365, 227 275.949 C 242.176 281.775, 241.582 282.200, 241.178 265.817 C 240.791 250.119, 237.803 252.233, 275.500 241.528 C 278.250 240.747, 283.425 239.814, 287 239.455 C 290.575 239.096, 295.719 238.172, 298.432 237.401 C 301.144 236.631, 304.871 236, 306.713 236 C 308.556 236, 312.636 235.149, 315.782 234.109 C 318.927 233.069, 324.106 231.476, 327.291 230.569 C 346.077 225.220, 352.209 200.639, 337.794 188.471 C 329.792 181.717, 321.722 180.501, 308.980 184.131 C 301.524 186.255, 294.348 187.707, 277.745 190.451 C 268.836 191.924, 260.474 194.017, 244.671 198.730 C 234.800 201.675, 234.044 201.418, 234.015 195.111 C 234.007 193.247, 233.133 186.497, 232.073 180.111 C 227.745 154.028, 227.588 154.815, 238.159 149.662 C 251.790 143.017, 263.113 140.054, 300 133.478 C 348.005 124.919, 364.085 113.493, 358.547 91.877 C 353.996 74.114, 346.572 70.860, 324.500 76.952 M 218.304 335.217 C 221.882 359.681, 232.516 385.014, 240.293 387.597 C 259.534 393.988, 263.967 388.136, 259.683 362 C 258.826 356.775, 257.831 350.144, 257.471 347.264 C 256.847 342.273, 256.645 341.981, 253.158 341.026 C 251.146 340.475, 248 339.103, 246.168 337.977 C 240.856 334.713, 232.984 331.933, 226.500 331.031 C 223.200 330.572, 219.799 329.912, 218.943 329.565 C 217.576 329.011, 217.498 329.702, 218.304 335.217" stroke="none" fill="#ff2b63" fill-rule="evenodd"/><path d="M 26.417 241 C 26.595 251.546, 27.258 259.846, 28.252 264 C 29.107 267.575, 30.286 273.684, 30.871 277.576 C 31.456 281.468, 34.236 293.843, 37.048 305.076 C 39.861 316.309, 42.956 329.100, 43.924 333.500 C 49.862 360.464, 58.949 380.451, 71.327 393.769 C 74.768 397.471, 81.704 405.490, 86.741 411.588 C 111.987 442.154, 142.801 459.549, 182 465.361 C 239.497 473.886, 266.415 474.692, 291.500 468.639 C 316.154 462.691, 330.682 458.617, 328.705 458.208 C 327.717 458.003, 325.469 458.338, 323.708 458.952 C 306.391 464.989, 218.681 459.418, 197.498 450.936 C 193.473 449.324, 186.221 447.065, 181.383 445.916 C 164.357 441.872, 145.265 432.263, 133.233 421.681 C 131.180 419.875, 127.025 416.654, 124 414.524 C 98.371 396.471, 67.525 360.032, 57.952 336.500 C 56.162 332.100, 54.313 328.001, 53.843 327.391 C 53.374 326.781, 52.142 323.856, 51.106 320.891 C 50.071 317.926, 47.598 312.138, 45.612 308.028 C 43.625 303.919, 42 300.010, 42 299.343 C 42 298.675, 40.233 292.813, 38.072 286.315 C 33.388 272.223, 31.400 263.935, 29.894 252.219 C 26.139 223.007, 26.110 222.914, 26.417 241" stroke="none" fill="#ededed" fill-rule="evenodd"/><path d="M 229.571 6.597 C 199.172 10.270, 173.228 20.108, 156 34.495 C 151.587 38.180, 142.575 43.465, 127.937 50.952 C 101.468 64.490, 95.454 68.918, 66.875 95.908 C 47.772 113.950, 29 159.587, 29 187.987 C 29 192.310, 28.567 198.019, 28.038 200.674 C 25.407 213.872, 25.073 217.264, 26.004 221.313 C 26.533 223.616, 27.901 232.700, 29.044 241.500 C 32.570 268.649, 39.354 294.074, 47.879 312.097 C 49.596 315.725, 51 318.959, 51 319.284 C 51 336.270, 94.853 393.368, 124 414.333 C 129.225 418.091, 136.639 423.595, 140.475 426.564 C 152.011 435.491, 165.193 441.489, 183.284 446.043 C 187.803 447.180, 194.967 449.434, 199.205 451.051 C 206.394 453.793, 218.426 456.060, 241 458.924 C 270.410 462.656, 329.911 459.307, 342.225 453.226 C 345.676 451.522, 354.968 447.165, 362.874 443.544 C 403.095 425.122, 427.086 399.910, 453.790 348 C 487.522 282.429, 489.822 248.477, 465.848 170 C 453.556 129.764, 443.468 107.929, 421.447 73.891 C 389.114 23.913, 311.506 -3.306, 229.571 6.597 M 352.499 65.328 C 350.299 66.051, 346.509 67.958, 344.078 69.567 C 341.646 71.176, 337.822 72.989, 335.579 73.595 C 324.393 76.617, 306.686 80.990, 300 82.381 C 286.490 85.191, 272.643 87.945, 264.500 89.441 C 240.484 93.851, 234.718 95.649, 217.500 104.091 C 200.947 112.208, 190.881 119.471, 185.916 126.879 C 182.318 132.248, 167.587 141.011, 155.396 145.034 C 142.562 149.270, 95.864 176.060, 91.887 181.469 C 79.321 198.556, 86.255 228.282, 108.340 252 C 112.693 256.675, 117.942 262.750, 120.005 265.500 C 124.847 271.957, 143.610 291.086, 147.500 293.533 C 149.150 294.571, 155.191 298.766, 160.926 302.856 C 166.660 306.946, 174.647 311.815, 178.676 313.677 C 182.705 315.538, 187.591 318.140, 189.534 319.458 C 191.477 320.777, 194.289 322.130, 195.783 322.464 C 201.887 323.832, 207.624 345.277, 210.933 379.092 C 212.828 398.458, 229.990 409.341, 246.507 401.649 C 260.064 395.335, 263.473 383.735, 259.506 357.413 C 257.373 343.260, 257.363 343.350, 260.750 345.584 C 266.095 349.110, 292.607 362.181, 300.500 365.181 C 316.767 371.366, 322.769 374.361, 334.227 382.010 C 360.793 399.746, 381.189 399.429, 390.421 381.138 C 400.402 361.360, 402.092 313.365, 394.227 273 C 392.566 264.475, 390.452 252.550, 389.529 246.500 C 388.606 240.450, 387.441 233.025, 386.939 230 C 385.281 220.004, 384.661 175.212, 385.884 153.853 C 389.758 86.226, 387.994 74.995, 372.262 67.099 C 366.906 64.410, 357.783 63.593, 352.499 65.328 M 333.420 139.980 C 332.019 141.381, 310.784 149.694, 304.116 151.452 C 301.027 152.267, 294.468 153.901, 289.539 155.084 C 284.610 156.267, 279.660 157.625, 278.539 158.101 C 277.418 158.578, 269.804 160.114, 261.621 161.516 C 249.641 163.567, 232.963 167.467, 231.150 168.640 C 230.958 168.765, 231.737 174.634, 232.882 181.683 C 234.027 188.732, 235.084 195.930, 235.232 197.677 C 235.500 200.855, 235.500 200.855, 244.085 198.086 C 253.901 194.921, 270.295 191.068, 287 188 C 293.325 186.838, 303.155 184.744, 308.843 183.345 C 319.724 180.669, 324.957 180.714, 331.750 183.544 C 335 184.898, 335 184.898, 335.006 170.199 C 335.009 162.115, 335.301 151.787, 335.654 147.250 C 336.273 139.305, 335.761 137.639, 333.420 139.980 M 179.500 190.584 C 177.850 191.316, 173.125 193.340, 169 195.082 C 145.530 204.994, 139.105 210.762, 145.088 216.547 C 147.336 218.721, 151.896 223.875, 155.222 228 C 163.386 238.128, 173.736 249.054, 178 252.045 C 179.925 253.395, 183.637 256.229, 186.250 258.343 C 191.792 262.827, 191.691 263.064, 190.049 249.409 C 189.526 245.059, 188.612 237, 188.018 231.500 C 186.941 221.519, 184.521 202.628, 183.199 193.877 C 182.500 189.253, 182.500 189.253, 179.500 190.584 M 324.500 232.179 C 318.450 234.202, 311.475 236.122, 309 236.445 C 306.525 236.768, 302.250 237.554, 299.500 238.193 C 296.750 238.831, 290.675 239.909, 286 240.588 C 275.976 242.044, 268.540 243.867, 253.250 248.617 C 242 252.111, 242 252.111, 242 265.484 C 242 281.952, 240.245 279.959, 263.500 289.911 C 267.350 291.559, 274.550 295.148, 279.500 297.887 C 296.674 307.389, 314.473 316.246, 322.964 319.515 C 327.659 321.323, 335.252 324.421, 339.839 326.401 C 344.425 328.380, 348.428 330, 348.735 330 C 351.096 330, 346.722 290.682, 343.006 278.500 C 342.503 276.850, 341.623 271, 341.050 265.500 C 340.477 260, 339.348 252.800, 338.541 249.500 C 337.733 246.200, 336.718 240.125, 336.286 236 C 335.500 228.500, 335.500 228.500, 324.500 232.179" stroke="none" fill="#ffffff" fill-rule="evenodd"/><path d="M 188.008 125.649 C 179.760 138.654, 177.778 162.227, 182.865 186.824 C 184.039 192.501, 184.999 198.351, 184.997 199.824 C 184.995 201.296, 185.646 207, 186.444 212.500 C 188.006 223.264, 189.251 233.735, 191.162 252.166 C 192.371 263.832, 192.371 263.832, 197.436 266.028 C 207.177 270.251, 209.075 271, 210.034 271 C 211.543 271, 211.188 245.803, 209.527 235.044 C 208.717 229.795, 207.125 218.525, 205.989 210 C 203.244 189.404, 199.871 166.632, 199.464 165.957 C 199.036 165.245, 195.503 143.039, 193.937 131.219 C 192.457 120.049, 191.894 119.520, 188.008 125.649 M 200 324.507 C 200 324.785, 201.580 329.008, 203.510 333.890 C 207.026 342.780, 210.119 359.589, 211.922 379.600 C 213.944 402.045, 240.318 411.672, 254.291 395.066 C 258 390.659, 257.738 390.006, 252.250 389.965 C 243.132 389.897, 234.931 386.175, 232.342 380.931 C 228.670 373.492, 220.006 346.060, 218.941 338.500 C 217.534 328.508, 217.514 328.474, 211.384 326.129 C 206.286 324.178, 200 323.282, 200 324.507" stroke="none" fill="#e32658" fill-rule="evenodd"/><path d="M 87.655 200.026 C 86.445 211.604, 86.858 215.119, 90.376 223.176 C 95.129 234.063, 101.240 243.385, 109.022 251.622 C 112.723 255.539, 117.504 260.939, 119.645 263.622 C 127.223 273.115, 144.587 290.329, 151 294.708 C 154.575 297.149, 160.200 301.146, 163.500 303.591 C 166.800 306.035, 173.550 310.095, 178.500 312.612 C 183.450 315.129, 189.465 318.250, 191.868 319.547 C 194.270 320.845, 198.770 322.396, 201.868 322.993 C 204.965 323.590, 210.200 325.215, 213.500 326.603 C 216.800 327.992, 223.069 329.767, 227.432 330.549 C 232.328 331.426, 238.452 333.484, 243.432 335.925 C 247.869 338.100, 252.625 340.192, 254 340.575 C 255.375 340.957, 256.765 341.680, 257.088 342.182 C 258.533 344.423, 297.335 363.727, 306 366.515 C 314.533 369.260, 325.842 375.146, 336.290 382.280 C 357.654 396.867, 374.136 398.046, 385.584 385.806 C 391.066 379.946, 394.047 382.082, 363.500 369.984 C 354.150 366.281, 339.175 360.039, 330.223 356.112 C 321.271 352.185, 308.221 347.010, 301.223 344.612 C 285.409 339.192, 277.432 335.594, 265.678 328.580 C 252.726 320.852, 242.980 316.548, 230.390 312.998 C 224.401 311.310, 215 308.391, 209.500 306.514 C 204 304.636, 196.268 302.167, 192.318 301.028 C 180.440 297.601, 151.912 273.366, 134.819 252.182 C 131.410 247.957, 123.371 238.875, 116.955 232 C 106.839 221.161, 92.044 201.809, 91.978 199.329 C 91.829 193.789, 88.246 194.368, 87.655 200.026" stroke="none" fill="#656565" fill-rule="evenodd"/><path d="M 349.500 67.400 C 342.436 70.764, 339.741 72.925, 342.554 72.968 C 354.097 73.147, 364.088 95.067, 358.035 106.932 C 351.013 120.695, 342.358 125.313, 312 131.493 C 305.125 132.892, 296.350 134.710, 292.500 135.533 C 288.650 136.356, 281.900 137.692, 277.500 138.503 C 254.736 142.698, 251.436 143.679, 238.338 150.137 C 229.245 154.621, 228.758 155.541, 230.602 164.758 C 231.203 167.765, 231.203 167.765, 236.352 166.313 C 245.266 163.798, 248.739 163.033, 262.294 160.598 C 287.676 156.038, 312.145 149.053, 327.730 141.916 C 335.959 138.148, 335.959 138.148, 335.322 161.493 C 334.685 184.837, 334.685 184.837, 338.339 188.283 C 348.497 197.863, 349.013 213.339, 339.524 223.841 C 335.837 227.923, 335.589 240.528, 339.019 249.550 C 339.484 250.774, 340.354 256.213, 340.952 261.638 C 341.550 267.062, 343.142 276.450, 344.490 282.500 C 352.617 318.968, 351.242 331.828, 339.750 326.817 C 334.663 324.599, 326.657 321.309, 321.959 319.505 C 313.198 316.140, 296.296 307.754, 280.688 299.027 C 275.842 296.317, 268.642 292.696, 264.688 290.980 C 260.735 289.263, 254.792 286.546, 251.483 284.941 C 248.174 283.336, 241.917 281.094, 237.578 279.957 C 233.240 278.821, 228.491 277.271, 227.025 276.513 C 225.559 275.755, 220.791 274.214, 216.429 273.089 C 202.448 269.482, 194.229 265.885, 189.170 261.158 C 187.420 259.524, 183.629 256.604, 180.744 254.670 C 175.235 250.974, 164.037 239.865, 157.530 231.640 C 155.416 228.967, 150.606 223.459, 146.843 219.400 C 143.079 215.341, 140 211.580, 140 211.043 C 140 208.924, 165.760 195.142, 178.287 190.558 C 181.878 189.244, 182.948 188.394, 182.572 187.153 C 179.138 175.839, 178.464 146.508, 181.444 138.124 C 182.300 135.718, 183 133.591, 183 133.399 C 183 132.739, 177.567 135.117, 167.796 140.055 C 162.413 142.775, 157.555 145, 156.999 145 C 155.130 145, 131.577 156.781, 123.183 161.914 C 118.609 164.711, 114.748 167, 114.604 167 C 113.994 167, 99.221 175.682, 96.437 177.676 C 91.877 180.942, 88.062 188.709, 87.611 195.643 C 87.349 199.666, 87.429 200.257, 87.865 197.528 C 88.439 193.941, 92 195.676, 92 199.544 C 92 201.774, 107.219 221.568, 116.955 232 C 123.371 238.875, 131.410 247.957, 134.819 252.182 C 151.912 273.366, 180.440 297.601, 192.318 301.028 C 196.268 302.167, 204 304.636, 209.500 306.514 C 215 308.391, 224.401 311.310, 230.390 312.998 C 242.980 316.548, 252.726 320.852, 265.678 328.580 C 277.432 335.594, 285.409 339.192, 301.223 344.612 C 308.221 347.010, 321.271 352.185, 330.223 356.112 C 343.827 362.079, 365.559 370.951, 385.797 378.800 C 391.171 380.884, 391.105 380.975, 394.503 366.788 C 400.455 341.930, 400.554 306.946, 394.754 278 C 392.825 268.375, 390.475 255.100, 389.531 248.500 C 388.588 241.900, 387.307 233.800, 386.684 230.500 C 385.918 226.438, 385.664 211.095, 385.897 183 C 386.726 83.459, 386.769 86.084, 384.196 80.500 C 377.903 66.841, 362.716 61.107, 349.500 67.400" stroke="none" fill="#717171" fill-rule="evenodd"/><path d="" stroke="none" fill="#a6556b" fill-rule="evenodd"/><path d="" stroke="none" fill="#fafafa" fill-rule="evenodd"/></svg>