<?xml version="1.0" standalone="no"?>
<!DOCTYPE svg PUBLIC "-//W3C//DTD SVG 20010904//EN"
 "http://www.w3.org/TR/2001/REC-SVG-20010904/DTD/svg10.dtd">
<svg version="1.0" xmlns="http://www.w3.org/2000/svg"
 width="500.000000pt" height="500.000000pt" viewBox="0 0 500.000000 500.000000"
 preserveAspectRatio="xMidYMid meet">

<g transform="translate(0.000000,500.000000) scale(0.100000,-0.100000)"
fill="#000000" stroke="none">
<path d="M3705 4365 l-710 -304 -482 0 -483 -1 0 -204 0 -203 -890 -378 c-490
-208 -890 -382 -890 -386 0 -3 390 -300 867 -659 478 -359 878 -662 891 -673
21 -20 22 -26 22 -204 l0 -183 248 0 247 0 669 -505 c368 -278 673 -505 678
-505 4 0 8 6 8 14 0 14 537 4435 543 4474 3 12 1 22 -2 21 -3 0 -325 -137
-716 -304z m128 -1914 c-131 -1072 -211 -1700 -218 -1697 -5 2 -211 155 -457
340 l-448 337 0 415 0 414 445 0 445 0 0 350 0 350 -445 0 -445 0 0 200 0 200
580 0 580 0 -2 348 -3 347 -24 3 c-18 3 3 16 85 51 60 26 110 47 111 46 2 -1
-90 -767 -204 -1704z m-1803 173 c0 -537 -3 -674 -12 -668 -22 13 -1102 826
-1120 843 -17 15 19 32 550 258 312 133 570 242 575 242 4 1 7 -303 7 -675z"/>
</g>
</svg>
